<mxfile host="app.diagrams.net" modified="2023-08-30T12:57:39.213Z" agent="Mozilla/5.0 (Windows NT 10.0; Win64; x64) AppleWebKit/537.36 (KHTML, like Gecko) Chrome/116.0.0.0 Safari/537.36" etag="qJ78bPqpyku8743YUSoA" version="21.6.9" type="device">
  <diagram name="Trang-1" id="syXiQbsVn5xaQwKcyWGS">
    <mxGraphModel dx="1035" dy="515" grid="1" gridSize="10" guides="1" tooltips="1" connect="1" arrows="1" fold="1" page="1" pageScale="1" pageWidth="827" pageHeight="1169" math="0" shadow="0">
      <root>
        <mxCell id="0" />
        <mxCell id="1" parent="0" />
        <mxCell id="fPQyAJ4fo90Uxxav7zD4-49" style="edgeStyle=orthogonalEdgeStyle;rounded=0;orthogonalLoop=1;jettySize=auto;html=1;entryX=0.5;entryY=0;entryDx=0;entryDy=0;" edge="1" parent="1" source="fPQyAJ4fo90Uxxav7zD4-1" target="fPQyAJ4fo90Uxxav7zD4-5">
          <mxGeometry relative="1" as="geometry" />
        </mxCell>
        <mxCell id="fPQyAJ4fo90Uxxav7zD4-1" value="&lt;font style=&quot;vertical-align: inherit;&quot;&gt;&lt;font style=&quot;vertical-align: inherit; font-size: 20px;&quot;&gt;Begin&lt;/font&gt;&lt;/font&gt;" style="ellipse;whiteSpace=wrap;html=1;" vertex="1" parent="1">
          <mxGeometry x="190" y="10" width="120" height="60" as="geometry" />
        </mxCell>
        <mxCell id="fPQyAJ4fo90Uxxav7zD4-50" style="edgeStyle=orthogonalEdgeStyle;rounded=0;orthogonalLoop=1;jettySize=auto;html=1;entryX=0.5;entryY=0;entryDx=0;entryDy=0;" edge="1" parent="1" source="fPQyAJ4fo90Uxxav7zD4-5" target="fPQyAJ4fo90Uxxav7zD4-10">
          <mxGeometry relative="1" as="geometry" />
        </mxCell>
        <mxCell id="fPQyAJ4fo90Uxxav7zD4-5" value="&lt;font style=&quot;vertical-align: inherit;&quot;&gt;&lt;font style=&quot;vertical-align: inherit;&quot;&gt;&lt;font style=&quot;vertical-align: inherit;&quot;&gt;&lt;font style=&quot;vertical-align: inherit;&quot;&gt;&lt;font style=&quot;vertical-align: inherit;&quot;&gt;&lt;font style=&quot;vertical-align: inherit;&quot;&gt;&lt;font style=&quot;vertical-align: inherit;&quot;&gt;&lt;font style=&quot;vertical-align: inherit;&quot;&gt;Khai báo nhiệt độ &lt;/font&gt;&lt;/font&gt;&lt;/font&gt;&lt;/font&gt;&lt;br&gt;&lt;font style=&quot;vertical-align: inherit;&quot;&gt;&lt;font style=&quot;vertical-align: inherit;&quot;&gt;&lt;font style=&quot;vertical-align: inherit;&quot;&gt;&lt;font style=&quot;vertical-align: inherit;&quot;&gt;ẩm, khoảng cách của&amp;nbsp;&lt;/font&gt;&lt;/font&gt;&lt;/font&gt;&lt;/font&gt;&lt;/font&gt;&lt;/font&gt;&lt;/font&gt;&lt;/font&gt;&lt;code style=&quot;border: 0px solid rgb(217, 217, 227); box-sizing: border-box; --tw-border-spacing-x: 0; --tw-border-spacing-y: 0; --tw-translate-x: 0; --tw-translate-y: 0; --tw-rotate: 0; --tw-skew-x: 0; --tw-skew-y: 0; --tw-scale-x: 1; --tw-scale-y: 1; --tw-pan-x: ; --tw-pan-y: ; --tw-pinch-zoom: ; --tw-scroll-snap-strictness: proximity; --tw-gradient-from-position: ; --tw-gradient-via-position: ; --tw-gradient-to-position: ; --tw-ordinal: ; --tw-slashed-zero: ; --tw-numeric-figure: ; --tw-numeric-spacing: ; --tw-numeric-fraction: ; --tw-ring-inset: ; --tw-ring-offset-width: 0px; --tw-ring-offset-color: #fff; --tw-ring-color: rgba(69,89,164,.5); --tw-ring-offset-shadow: 0 0 transparent; --tw-ring-shadow: 0 0 transparent; --tw-shadow: 0 0 transparent; --tw-shadow-colored: 0 0 transparent; --tw-blur: ; --tw-brightness: ; --tw-contrast: ; --tw-grayscale: ; --tw-hue-rotate: ; --tw-invert: ; --tw-saturate: ; --tw-sepia: ; --tw-drop-shadow: ; --tw-backdrop-blur: ; --tw-backdrop-brightness: ; --tw-backdrop-contrast: ; --tw-backdrop-grayscale: ; --tw-backdrop-hue-rotate: ; --tw-backdrop-invert: ; --tw-backdrop-opacity: ; --tw-backdrop-saturate: ; --tw-backdrop-sepia: ; font-size: 0.875em; color: var(--tw-prose-code); font-family: &amp;quot;Söhne Mono&amp;quot;, Monaco, &amp;quot;Andale Mono&amp;quot;, &amp;quot;Ubuntu Mono&amp;quot;, monospace !important;&quot;&gt;thingspeak&lt;/code&gt;" style="shape=parallelogram;perimeter=parallelogramPerimeter;whiteSpace=wrap;html=1;fixedSize=1;" vertex="1" parent="1">
          <mxGeometry x="175" y="110" width="150" height="60" as="geometry" />
        </mxCell>
        <mxCell id="fPQyAJ4fo90Uxxav7zD4-17" style="edgeStyle=orthogonalEdgeStyle;rounded=0;orthogonalLoop=1;jettySize=auto;html=1;exitX=0.5;exitY=1;exitDx=0;exitDy=0;entryX=0.5;entryY=0;entryDx=0;entryDy=0;" edge="1" parent="1" source="fPQyAJ4fo90Uxxav7zD4-10" target="fPQyAJ4fo90Uxxav7zD4-15">
          <mxGeometry relative="1" as="geometry" />
        </mxCell>
        <mxCell id="fPQyAJ4fo90Uxxav7zD4-10" value="&lt;font style=&quot;vertical-align: inherit;&quot;&gt;&lt;font style=&quot;vertical-align: inherit;&quot;&gt;&lt;font style=&quot;vertical-align: inherit;&quot;&gt;&lt;font style=&quot;vertical-align: inherit;&quot;&gt;&lt;font style=&quot;vertical-align: inherit;&quot;&gt;&lt;font style=&quot;vertical-align: inherit;&quot;&gt;&lt;font style=&quot;vertical-align: inherit;&quot;&gt;&lt;font style=&quot;vertical-align: inherit;&quot;&gt;&lt;font style=&quot;vertical-align: inherit;&quot;&gt;&lt;font style=&quot;vertical-align: inherit;&quot;&gt;&amp;nbsp;Tạo URL được mã &lt;/font&gt;&lt;/font&gt;&lt;br&gt;&lt;font style=&quot;vertical-align: inherit;&quot;&gt;&lt;font style=&quot;vertical-align: inherit;&quot;&gt;hóa tham số có dạng field&lt;/font&gt;&lt;/font&gt;&lt;/font&gt;&lt;/font&gt;&lt;/font&gt;&lt;/font&gt;&lt;/font&gt;&lt;/font&gt;&lt;/font&gt;&lt;/font&gt;" style="shape=parallelogram;perimeter=parallelogramPerimeter;whiteSpace=wrap;html=1;fixedSize=1;" vertex="1" parent="1">
          <mxGeometry x="165" y="220" width="170" height="60" as="geometry" />
        </mxCell>
        <mxCell id="fPQyAJ4fo90Uxxav7zD4-51" style="edgeStyle=orthogonalEdgeStyle;rounded=0;orthogonalLoop=1;jettySize=auto;html=1;entryX=0.5;entryY=0;entryDx=0;entryDy=0;" edge="1" parent="1" source="fPQyAJ4fo90Uxxav7zD4-15" target="fPQyAJ4fo90Uxxav7zD4-37">
          <mxGeometry relative="1" as="geometry" />
        </mxCell>
        <mxCell id="fPQyAJ4fo90Uxxav7zD4-15" value="&lt;font style=&quot;vertical-align: inherit;&quot;&gt;&lt;font style=&quot;vertical-align: inherit;&quot;&gt;Được mã hoá và chuyển về chuỗi bytes&lt;br&gt;&lt;br&gt;&lt;/font&gt;&lt;/font&gt;" style="rounded=0;whiteSpace=wrap;html=1;" vertex="1" parent="1">
          <mxGeometry x="172.5" y="310" width="145" height="60" as="geometry" />
        </mxCell>
        <mxCell id="fPQyAJ4fo90Uxxav7zD4-48" style="edgeStyle=orthogonalEdgeStyle;rounded=0;orthogonalLoop=1;jettySize=auto;html=1;entryX=0.5;entryY=0;entryDx=0;entryDy=0;" edge="1" parent="1" source="fPQyAJ4fo90Uxxav7zD4-22" target="fPQyAJ4fo90Uxxav7zD4-28">
          <mxGeometry relative="1" as="geometry" />
        </mxCell>
        <mxCell id="fPQyAJ4fo90Uxxav7zD4-22" value="&lt;p style=&quot;font-size: 15px;&quot; class=&quot;MsoNormal&quot;&gt;Xác định yêu cầu kiểu dữ liệu&amp;nbsp;&lt;/p&gt;" style="rounded=0;whiteSpace=wrap;html=1;" vertex="1" parent="1">
          <mxGeometry x="167.5" y="600" width="157.5" height="90" as="geometry" />
        </mxCell>
        <mxCell id="fPQyAJ4fo90Uxxav7zD4-47" style="edgeStyle=orthogonalEdgeStyle;rounded=0;orthogonalLoop=1;jettySize=auto;html=1;entryX=0.5;entryY=0;entryDx=0;entryDy=0;" edge="1" parent="1" source="fPQyAJ4fo90Uxxav7zD4-27" target="fPQyAJ4fo90Uxxav7zD4-22">
          <mxGeometry relative="1" as="geometry" />
        </mxCell>
        <mxCell id="fPQyAJ4fo90Uxxav7zD4-27" value="Gán giá trị API" style="rounded=0;whiteSpace=wrap;html=1;" vertex="1" parent="1">
          <mxGeometry x="172.5" y="500" width="147.5" height="60" as="geometry" />
        </mxCell>
        <mxCell id="fPQyAJ4fo90Uxxav7zD4-58" style="edgeStyle=orthogonalEdgeStyle;rounded=0;orthogonalLoop=1;jettySize=auto;html=1;entryX=0.5;entryY=0;entryDx=0;entryDy=0;" edge="1" parent="1" source="fPQyAJ4fo90Uxxav7zD4-28">
          <mxGeometry relative="1" as="geometry">
            <mxPoint x="246.25" y="850" as="targetPoint" />
          </mxGeometry>
        </mxCell>
        <mxCell id="fPQyAJ4fo90Uxxav7zD4-28" value="&lt;font style=&quot;font-size: 16px;&quot;&gt;Dùng hàm&amp;nbsp;&lt;code style=&quot;border: 0px solid rgb(217, 217, 227); box-sizing: border-box; --tw-border-spacing-x: 0; --tw-border-spacing-y: 0; --tw-translate-x: 0; --tw-translate-y: 0; --tw-rotate: 0; --tw-skew-x: 0; --tw-skew-y: 0; --tw-scale-x: 1; --tw-scale-y: 1; --tw-pan-x: ; --tw-pan-y: ; --tw-pinch-zoom: ; --tw-scroll-snap-strictness: proximity; --tw-gradient-from-position: ; --tw-gradient-via-position: ; --tw-gradient-to-position: ; --tw-ordinal: ; --tw-slashed-zero: ; --tw-numeric-figure: ; --tw-numeric-spacing: ; --tw-numeric-fraction: ; --tw-ring-inset: ; --tw-ring-offset-width: 0px; --tw-ring-offset-color: #fff; --tw-ring-color: rgba(69,89,164,.5); --tw-ring-offset-shadow: 0 0 transparent; --tw-ring-shadow: 0 0 transparent; --tw-shadow: 0 0 transparent; --tw-shadow-colored: 0 0 transparent; --tw-blur: ; --tw-brightness: ; --tw-contrast: ; --tw-grayscale: ; --tw-hue-rotate: ; --tw-invert: ; --tw-saturate: ; --tw-sepia: ; --tw-drop-shadow: ; --tw-backdrop-blur: ; --tw-backdrop-brightness: ; --tw-backdrop-contrast: ; --tw-backdrop-grayscale: ; --tw-backdrop-hue-rotate: ; --tw-backdrop-invert: ; --tw-backdrop-opacity: ; --tw-backdrop-saturate: ; --tw-backdrop-sepia: ; color: var(--tw-prose-code); font-weight: 600; text-align: start; background-color: rgb(247, 247, 248); font-family: &amp;quot;Söhne Mono&amp;quot;, Monaco, &amp;quot;Andale Mono&amp;quot;, &amp;quot;Ubuntu Mono&amp;quot;, monospace !important;&quot;&gt;urlopen để đọc phản hồi từ thingspeak&lt;/code&gt;&lt;/font&gt;" style="rounded=0;whiteSpace=wrap;html=1;" vertex="1" parent="1">
          <mxGeometry x="165" y="730" width="162.5" height="60" as="geometry" />
        </mxCell>
        <mxCell id="fPQyAJ4fo90Uxxav7zD4-46" style="edgeStyle=orthogonalEdgeStyle;rounded=0;orthogonalLoop=1;jettySize=auto;html=1;entryX=0.5;entryY=0;entryDx=0;entryDy=0;" edge="1" parent="1" source="fPQyAJ4fo90Uxxav7zD4-37" target="fPQyAJ4fo90Uxxav7zD4-27">
          <mxGeometry relative="1" as="geometry" />
        </mxCell>
        <mxCell id="fPQyAJ4fo90Uxxav7zD4-37" value="&lt;br&gt;&lt;br style=&quot;border-color: var(--border-color); color: rgb(0, 0, 0); font-family: Helvetica; font-size: 12px; font-style: normal; font-variant-ligatures: normal; font-variant-caps: normal; font-weight: 400; letter-spacing: normal; orphans: 2; text-align: left; text-indent: 0px; text-transform: none; widows: 2; word-spacing: 0px; -webkit-text-stroke-width: 0px; background-color: rgb(251, 251, 251); text-decoration-thickness: initial; text-decoration-style: initial; text-decoration-color: initial;&quot;&gt;&lt;span style=&quot;border-color: var(--border-color); font-style: normal; font-variant-ligatures: normal; font-variant-caps: normal; font-weight: 400; letter-spacing: normal; orphans: 2; text-indent: 0px; text-transform: none; widows: 2; word-spacing: 0px; -webkit-text-stroke-width: 0px; text-decoration-thickness: initial; text-decoration-style: initial; text-decoration-color: initial; color: rgb(55, 65, 81); font-family: Söhne, ui-sans-serif, system-ui, -apple-system, &amp;quot;Segoe UI&amp;quot;, Roboto, Ubuntu, Cantarell, &amp;quot;Noto Sans&amp;quot;, sans-serif, &amp;quot;Helvetica Neue&amp;quot;, Arial, &amp;quot;Apple Color Emoji&amp;quot;, &amp;quot;Segoe UI Emoji&amp;quot;, &amp;quot;Segoe UI Symbol&amp;quot;, &amp;quot;Noto Color Emoji&amp;quot;; font-size: 16px; text-align: start; background-color: rgb(247, 247, 248); float: none; display: inline !important;&quot;&gt;Gửi dữ liệu đến ThingSpeak thông qua yêu cầu HTTP POST.&lt;/span&gt;&lt;br style=&quot;border-color: var(--border-color); color: rgb(0, 0, 0); font-family: Helvetica; font-size: 12px; font-style: normal; font-variant-ligatures: normal; font-variant-caps: normal; font-weight: 400; letter-spacing: normal; orphans: 2; text-align: left; text-indent: 0px; text-transform: none; widows: 2; word-spacing: 0px; -webkit-text-stroke-width: 0px; background-color: rgb(251, 251, 251); text-decoration-thickness: initial; text-decoration-style: initial; text-decoration-color: initial;&quot;&gt;&lt;br&gt;" style="rounded=0;whiteSpace=wrap;html=1;" vertex="1" parent="1">
          <mxGeometry x="165" y="400" width="162.5" height="80" as="geometry" />
        </mxCell>
        <mxCell id="fPQyAJ4fo90Uxxav7zD4-54" value="" style="endArrow=none;html=1;rounded=0;" edge="1" parent="1">
          <mxGeometry width="50" height="50" relative="1" as="geometry">
            <mxPoint x="110" y="90" as="sourcePoint" />
            <mxPoint x="250" y="90" as="targetPoint" />
          </mxGeometry>
        </mxCell>
        <mxCell id="fPQyAJ4fo90Uxxav7zD4-56" value="" style="endArrow=none;html=1;rounded=0;" edge="1" parent="1">
          <mxGeometry width="50" height="50" relative="1" as="geometry">
            <mxPoint x="110" y="90" as="sourcePoint" />
            <mxPoint x="110" y="880" as="targetPoint" />
          </mxGeometry>
        </mxCell>
        <mxCell id="fPQyAJ4fo90Uxxav7zD4-57" value="" style="endArrow=classic;html=1;rounded=0;" edge="1" parent="1">
          <mxGeometry width="50" height="50" relative="1" as="geometry">
            <mxPoint x="110" y="880" as="sourcePoint" />
            <mxPoint x="160" y="880" as="targetPoint" />
          </mxGeometry>
        </mxCell>
        <mxCell id="fPQyAJ4fo90Uxxav7zD4-59" value="&lt;font style=&quot;font-size: 15px;&quot;&gt;&amp;nbsp; &amp;nbsp; Khởi tạo các cảm biến để&lt;br&gt;&amp;nbsp;tham chiếu các cảm biến&lt;br&gt;&amp;nbsp;và hiển thị&amp;nbsp;&lt;/font&gt;" style="shape=parallelogram;perimeter=parallelogramPerimeter;whiteSpace=wrap;html=1;fixedSize=1;" vertex="1" parent="1">
          <mxGeometry x="151.25" y="850" width="228.75" height="70" as="geometry" />
        </mxCell>
        <mxCell id="fPQyAJ4fo90Uxxav7zD4-61" value="" style="endArrow=classic;html=1;rounded=0;" edge="1" parent="1">
          <mxGeometry width="50" height="50" relative="1" as="geometry">
            <mxPoint x="244.5" y="920" as="sourcePoint" />
            <mxPoint x="244.5" y="1000" as="targetPoint" />
          </mxGeometry>
        </mxCell>
        <mxCell id="fPQyAJ4fo90Uxxav7zD4-85" style="edgeStyle=orthogonalEdgeStyle;rounded=0;orthogonalLoop=1;jettySize=auto;html=1;entryX=0.55;entryY=-0.015;entryDx=0;entryDy=0;entryPerimeter=0;" edge="1" parent="1" source="fPQyAJ4fo90Uxxav7zD4-62" target="fPQyAJ4fo90Uxxav7zD4-63">
          <mxGeometry relative="1" as="geometry" />
        </mxCell>
        <mxCell id="fPQyAJ4fo90Uxxav7zD4-62" value="&lt;font style=&quot;font-size: 15px;&quot;&gt;&lt;span style=&quot;color: rgb(55, 65, 81); font-family: Söhne, ui-sans-serif, system-ui, -apple-system, &amp;quot;Segoe UI&amp;quot;, Roboto, Ubuntu, Cantarell, &amp;quot;Noto Sans&amp;quot;, sans-serif, &amp;quot;Helvetica Neue&amp;quot;, Arial, &amp;quot;Apple Color Emoji&amp;quot;, &amp;quot;Segoe UI Emoji&amp;quot;, &amp;quot;Segoe UI Symbol&amp;quot;, &amp;quot;Noto Color Emoji&amp;quot;; font-style: normal; font-variant-ligatures: normal; font-variant-caps: normal; font-weight: 400; letter-spacing: normal; orphans: 2; text-align: start; text-indent: 0px; text-transform: none; widows: 2; word-spacing: 0px; -webkit-text-stroke-width: 0px; background-color: rgb(247, 247, 248); text-decoration-thickness: initial; text-decoration-style: initial; text-decoration-color: initial; float: none; display: inline !important;&quot;&gt;Đọc dữ liệu nhiệt độ và độ ẩm, và&amp;nbsp;&lt;br&gt;&amp;nbsp;cảm biến khoảng cách &lt;/span&gt;&lt;/font&gt;" style="rounded=0;whiteSpace=wrap;html=1;" vertex="1" parent="1">
          <mxGeometry x="167.5" y="1000" width="172.5" height="90" as="geometry" />
        </mxCell>
        <mxCell id="fPQyAJ4fo90Uxxav7zD4-71" style="edgeStyle=orthogonalEdgeStyle;rounded=0;orthogonalLoop=1;jettySize=auto;html=1;entryX=0.5;entryY=0;entryDx=0;entryDy=0;" edge="1" parent="1" source="fPQyAJ4fo90Uxxav7zD4-63" target="fPQyAJ4fo90Uxxav7zD4-64">
          <mxGeometry relative="1" as="geometry" />
        </mxCell>
        <mxCell id="fPQyAJ4fo90Uxxav7zD4-63" value="&lt;font style=&quot;font-size: 15px;&quot;&gt;Hiển thị dữ liệu nhiệt độ &lt;br&gt;và độ ẩm ra màn hình&lt;/font&gt;" style="shape=parallelogram;perimeter=parallelogramPerimeter;whiteSpace=wrap;html=1;fixedSize=1;" vertex="1" parent="1">
          <mxGeometry x="150" y="1130" width="190" height="100" as="geometry" />
        </mxCell>
        <mxCell id="fPQyAJ4fo90Uxxav7zD4-73" style="edgeStyle=orthogonalEdgeStyle;rounded=0;orthogonalLoop=1;jettySize=auto;html=1;entryX=0.5;entryY=0;entryDx=0;entryDy=0;" edge="1" parent="1" source="fPQyAJ4fo90Uxxav7zD4-64" target="fPQyAJ4fo90Uxxav7zD4-72">
          <mxGeometry relative="1" as="geometry" />
        </mxCell>
        <mxCell id="fPQyAJ4fo90Uxxav7zD4-82" style="edgeStyle=orthogonalEdgeStyle;rounded=0;orthogonalLoop=1;jettySize=auto;html=1;entryX=0;entryY=0.5;entryDx=0;entryDy=0;" edge="1" parent="1" source="fPQyAJ4fo90Uxxav7zD4-64" target="fPQyAJ4fo90Uxxav7zD4-81">
          <mxGeometry relative="1" as="geometry">
            <Array as="points">
              <mxPoint x="410" y="1320" />
            </Array>
          </mxGeometry>
        </mxCell>
        <mxCell id="fPQyAJ4fo90Uxxav7zD4-64" value="&lt;font style=&quot;font-size: 15px;&quot;&gt;Gửi dữ liệu lên ThingSpeak&lt;/font&gt;" style="rhombus;whiteSpace=wrap;html=1;" vertex="1" parent="1">
          <mxGeometry x="168.75" y="1260" width="152.5" height="120" as="geometry" />
        </mxCell>
        <mxCell id="fPQyAJ4fo90Uxxav7zD4-68" value="Đúng" style="text;html=1;strokeColor=none;fillColor=none;align=center;verticalAlign=middle;whiteSpace=wrap;rounded=0;" vertex="1" parent="1">
          <mxGeometry x="335" y="1280" width="60" height="30" as="geometry" />
        </mxCell>
        <mxCell id="fPQyAJ4fo90Uxxav7zD4-69" value="&lt;font style=&quot;font-size: 17px;&quot;&gt;Tạo trễ 20s&lt;/font&gt;" style="rounded=0;whiteSpace=wrap;html=1;" vertex="1" parent="1">
          <mxGeometry x="620" y="1275" width="140" height="90" as="geometry" />
        </mxCell>
        <mxCell id="fPQyAJ4fo90Uxxav7zD4-80" style="edgeStyle=orthogonalEdgeStyle;rounded=0;orthogonalLoop=1;jettySize=auto;html=1;entryX=0.5;entryY=0;entryDx=0;entryDy=0;" edge="1" parent="1" source="fPQyAJ4fo90Uxxav7zD4-72" target="fPQyAJ4fo90Uxxav7zD4-79">
          <mxGeometry relative="1" as="geometry" />
        </mxCell>
        <mxCell id="fPQyAJ4fo90Uxxav7zD4-72" value="&lt;font style=&quot;font-size: 15px;&quot;&gt;Không gửi được&amp;nbsp; dữ liệu&amp;nbsp;&lt;/font&gt;" style="rounded=0;whiteSpace=wrap;html=1;" vertex="1" parent="1">
          <mxGeometry x="178.13" y="1440" width="133.75" height="60" as="geometry" />
        </mxCell>
        <mxCell id="fPQyAJ4fo90Uxxav7zD4-77" value="&lt;font style=&quot;font-size: 19px;&quot;&gt;Sai&lt;/font&gt;" style="text;html=1;strokeColor=none;fillColor=none;align=center;verticalAlign=middle;whiteSpace=wrap;rounded=0;" vertex="1" parent="1">
          <mxGeometry x="240" y="1400" width="60" height="30" as="geometry" />
        </mxCell>
        <mxCell id="fPQyAJ4fo90Uxxav7zD4-79" value="&lt;font style=&quot;font-size: 15px;&quot;&gt;Tạo trễ 5s&lt;/font&gt;" style="rounded=0;whiteSpace=wrap;html=1;" vertex="1" parent="1">
          <mxGeometry x="175" y="1570" width="140" height="60" as="geometry" />
        </mxCell>
        <mxCell id="fPQyAJ4fo90Uxxav7zD4-84" style="edgeStyle=orthogonalEdgeStyle;rounded=0;orthogonalLoop=1;jettySize=auto;html=1;entryX=0;entryY=0.5;entryDx=0;entryDy=0;" edge="1" parent="1" source="fPQyAJ4fo90Uxxav7zD4-81" target="fPQyAJ4fo90Uxxav7zD4-69">
          <mxGeometry relative="1" as="geometry" />
        </mxCell>
        <mxCell id="fPQyAJ4fo90Uxxav7zD4-81" value="&lt;font style=&quot;font-size: 19px;&quot;&gt;&lt;font style=&quot;font-size: 19px;&quot;&gt;hiển thị&amp;nbsp;&lt;/font&gt;&amp;nbsp;lên ThingSpeak&lt;/font&gt;" style="rounded=0;whiteSpace=wrap;html=1;" vertex="1" parent="1">
          <mxGeometry x="410" y="1280" width="150" height="80" as="geometry" />
        </mxCell>
        <mxCell id="fPQyAJ4fo90Uxxav7zD4-90" value="" style="endArrow=none;html=1;rounded=0;" edge="1" parent="1">
          <mxGeometry width="50" height="50" relative="1" as="geometry">
            <mxPoint x="90" y="1600" as="sourcePoint" />
            <mxPoint x="172.5" y="1600" as="targetPoint" />
          </mxGeometry>
        </mxCell>
        <mxCell id="fPQyAJ4fo90Uxxav7zD4-92" value="" style="endArrow=none;html=1;rounded=0;" edge="1" parent="1">
          <mxGeometry width="50" height="50" relative="1" as="geometry">
            <mxPoint x="90" y="1600" as="sourcePoint" />
            <mxPoint x="90" y="1100" as="targetPoint" />
          </mxGeometry>
        </mxCell>
        <mxCell id="fPQyAJ4fo90Uxxav7zD4-93" value="" style="endArrow=classic;html=1;rounded=0;" edge="1" parent="1">
          <mxGeometry width="50" height="50" relative="1" as="geometry">
            <mxPoint x="90" y="1100" as="sourcePoint" />
            <mxPoint x="250" y="1100" as="targetPoint" />
          </mxGeometry>
        </mxCell>
        <mxCell id="fPQyAJ4fo90Uxxav7zD4-104" value="" style="endArrow=classic;html=1;rounded=0;" edge="1" parent="1">
          <mxGeometry width="50" height="50" relative="1" as="geometry">
            <mxPoint x="420" y="1440" as="sourcePoint" />
            <mxPoint x="420" y="1570" as="targetPoint" />
          </mxGeometry>
        </mxCell>
      </root>
    </mxGraphModel>
  </diagram>
</mxfile>
